<svg xmlns="http://www.w3.org/2000/svg" xmlns:xlink="http://www.w3.org/1999/xlink" width="250" zoomAndPan="magnify" viewBox="0 0 187.5 187.499992" height="250" preserveAspectRatio="xMidYMid meet" version="1.0"><defs><clipPath id="1ce5564d86"><path d="M 0 70 L 187 70 L 187 133.167969 L 0 133.167969 Z M 0 70 " clip-rule="nonzero"/></clipPath><clipPath id="a549221122"><path d="M 52 53.878906 L 134 53.878906 L 134 81 L 52 81 Z M 52 53.878906 " clip-rule="nonzero"/></clipPath></defs><g clip-path="url(#1ce5564d86)"><path fill="#077954" d="M 180 88.863281 C 166.816406 81.265625 136.421875 73.535156 123.566406 72.511719 L 113.882812 71.734375 C 103.554688 70.894531 97.855469 70.445312 93.496094 70.445312 C 89.136719 70.445312 63.441406 72.527344 63.441406 72.527344 C 50.582031 73.550781 20.191406 81.277344 7.003906 88.875 C 0.820312 92.429688 0.152344 94.960938 0.152344 103.355469 L 0.152344 124.761719 C 0.152344 126.503906 0.359375 129.035156 2.175781 130.957031 C 4.265625 133.167969 6.972656 133.167969 10.109375 133.167969 L 176.894531 133.167969 C 180.027344 133.167969 182.734375 133.167969 184.828125 130.957031 C 186.640625 129.035156 186.851562 126.503906 186.851562 124.761719 L 186.851562 103.34375 C 186.851562 94.949219 186.179688 92.429688 180 88.863281 Z M 180 88.863281 " fill-opacity="1" fill-rule="nonzero"/><path fill="#000000" d="M 180 88.863281 C 166.816406 81.265625 136.421875 73.535156 123.566406 72.511719 L 113.882812 71.734375 C 103.554688 70.894531 97.855469 70.445312 93.496094 70.445312 C 89.136719 70.445312 63.441406 72.527344 63.441406 72.527344 C 50.582031 73.550781 20.191406 81.277344 7.003906 88.875 C 0.820312 92.429688 0.152344 94.960938 0.152344 103.355469 L 0.152344 124.761719 C 0.152344 126.503906 0.359375 129.035156 2.175781 130.957031 C 4.265625 133.167969 6.972656 133.167969 10.109375 133.167969 L 176.894531 133.167969 C 180.027344 133.167969 182.734375 133.167969 184.828125 130.957031 C 186.640625 129.035156 186.851562 126.503906 186.851562 124.761719 L 186.851562 103.34375 C 186.851562 94.949219 186.179688 92.429688 180 88.863281 M 180 88.863281 C 186.179688 92.429688 186.851562 94.949219 186.851562 103.34375 L 186.851562 124.761719 C 186.851562 126.503906 186.640625 129.035156 184.828125 130.957031 C 182.734375 133.167969 180.027344 133.167969 176.894531 133.167969 L 10.109375 133.167969 C 6.972656 133.167969 4.265625 133.167969 2.175781 130.957031 C 0.359375 129.035156 0.152344 126.503906 0.152344 124.761719 L 0.152344 103.355469 C 0.152344 94.960938 0.820312 92.429688 7.003906 88.875 C 20.191406 81.277344 50.582031 73.550781 63.441406 72.527344 C 63.441406 72.527344 89.136719 70.445312 93.496094 70.445312 C 97.855469 70.445312 103.554688 70.894531 113.882812 71.734375 L 123.566406 72.511719 C 136.421875 73.535156 166.816406 81.265625 180 88.863281 Z M 180 88.863281 " fill-opacity="1" fill-rule="nonzero"/></g><path fill="#ffffff" d="M 184.796875 124.75 C 184.796875 126.101562 184.648438 128.054688 183.375 129.40625 C 181.882812 130.980469 179.792969 130.980469 176.894531 130.976562 L 10.117188 130.976562 C 7.210938 130.976562 5.128906 130.976562 3.636719 129.40625 C 2.359375 128.054688 2.214844 126.101562 2.214844 124.75 L 2.214844 103.34375 C 2.214844 95.234375 2.914062 93.703125 7.996094 90.777344 C 20.957031 83.300781 50.921875 75.691406 63.601562 74.683594 L 73.285156 73.90625 C 83.582031 72.726562 89.296875 72.34375 93.578125 72.34375 C 97.855469 72.34375 104.339844 72.613281 113.746094 73.90625 L 123.429688 74.683594 C 136.113281 75.691406 166.074219 83.300781 179.035156 90.777344 C 184.113281 93.703125 184.816406 95.234375 184.816406 103.34375 L 184.816406 124.75 Z M 184.796875 124.75 " fill-opacity="1" fill-rule="nonzero"/><path fill="#000000" d="M 184.796875 124.75 C 184.796875 126.101562 184.648438 128.054688 183.375 129.40625 C 181.882812 130.980469 179.792969 130.980469 176.894531 130.976562 L 10.117188 130.976562 C 7.210938 130.976562 5.128906 130.976562 3.636719 129.40625 C 2.359375 128.054688 2.214844 126.101562 2.214844 124.75 L 2.214844 103.34375 C 2.214844 95.234375 2.914062 93.703125 7.996094 90.777344 C 20.957031 83.300781 50.921875 75.691406 63.601562 74.683594 L 73.285156 73.90625 C 83.582031 72.726562 89.296875 72.34375 93.578125 72.34375 C 97.855469 72.34375 104.339844 72.613281 113.746094 73.90625 L 123.429688 74.683594 C 136.113281 75.691406 166.074219 83.300781 179.035156 90.777344 C 184.113281 93.703125 184.816406 95.234375 184.816406 103.34375 L 184.816406 124.75 L 184.796875 124.75 M 184.796875 124.75 L 184.816406 124.75 L 184.816406 103.34375 C 184.816406 95.234375 184.113281 93.703125 179.035156 90.777344 C 166.074219 83.300781 136.113281 75.691406 123.429688 74.683594 L 113.746094 73.90625 C 104.339844 72.613281 97.855469 72.34375 93.578125 72.34375 C 89.296875 72.34375 83.582031 72.726562 73.285156 73.90625 L 63.601562 74.683594 C 50.921875 75.691406 20.957031 83.300781 7.996094 90.777344 C 2.914062 93.703125 2.214844 95.234375 2.214844 103.34375 L 2.214844 124.75 C 2.214844 126.101562 2.359375 128.054688 3.636719 129.40625 C 5.128906 130.976562 7.210938 130.976562 10.117188 130.976562 L 176.894531 130.976562 C 179.792969 130.980469 181.882812 130.980469 183.375 129.40625 C 184.648438 128.054688 184.796875 126.101562 184.796875 124.75 Z M 184.796875 124.75 " fill-opacity="1" fill-rule="nonzero"/><g clip-path="url(#a549221122)"><path fill="#df2a27" d="M 133.894531 65.128906 L 132.6875 64.75 C 132.363281 64.660156 124.578125 62.546875 121.992188 62.488281 L 122.578125 59.371094 C 122.613281 59.121094 122.535156 58.867188 122.367188 58.683594 C 121.269531 57.1875 109.808594 53.878906 93.371094 53.878906 C 77.136719 53.878906 65.261719 56.941406 64.140625 58.289062 C 63.980469 58.460938 63.90625 58.699219 63.949219 58.933594 L 64.730469 62.488281 C 62.148438 62.558594 54.375 64.667969 54.035156 64.746094 L 52.832031 65.125 L 53.5625 65.960938 L 58.160156 70.847656 L 57.164062 79.128906 L 57.042969 80.257812 L 58.09375 79.996094 C 59.0625 79.757812 60.128906 79.4375 61.265625 79.097656 C 63.898438 78.316406 66.878906 77.433594 68.964844 77.433594 C 68.984375 77.433594 70.53125 77.398438 72.058594 77.265625 C 72.59375 77.21875 72.886719 77.0625 72.949219 76.792969 C 73.125 76.074219 71.335938 74.855469 70.871094 74.566406 C 71.679688 73.859375 84.082031 72.507812 93.371094 72.554688 L 93.773438 72.554688 C 103.042969 72.554688 115.167969 73.882812 115.878906 74.5625 C 115.421875 74.855469 113.617188 76.070312 113.789062 76.792969 C 113.855469 77.0625 114.144531 77.21875 114.679688 77.265625 C 116.207031 77.398438 117.757812 77.433594 117.777344 77.433594 C 119.863281 77.433594 122.84375 78.316406 125.472656 79.097656 C 126.609375 79.421875 127.683594 79.742188 128.644531 79.996094 L 129.699219 80.257812 L 128.578125 70.847656 L 133.179688 65.957031 Z M 133.894531 65.128906 " fill-opacity="1" fill-rule="nonzero"/><path fill="#000000" d="M 133.894531 65.128906 L 132.6875 64.75 C 132.363281 64.660156 124.578125 62.546875 121.992188 62.488281 L 122.578125 59.371094 C 122.613281 59.121094 122.535156 58.867188 122.367188 58.683594 C 121.269531 57.1875 109.808594 53.878906 93.371094 53.878906 C 77.136719 53.878906 65.261719 56.941406 64.140625 58.289062 C 63.980469 58.460938 63.90625 58.699219 63.949219 58.933594 L 64.730469 62.488281 C 62.464844 62.550781 56.1875 64.1875 54.464844 64.636719 C 54.226562 64.699219 54.078125 64.738281 54.035156 64.746094 L 52.832031 65.125 L 53.5625 65.960938 L 58.160156 70.847656 L 57.164062 79.128906 L 57.042969 80.257812 L 58.09375 79.996094 C 59.046875 79.761719 60.097656 79.445312 61.214844 79.113281 L 61.265625 79.097656 C 61.269531 79.097656 61.269531 79.097656 61.273438 79.09375 C 63.902344 78.316406 66.878906 77.433594 68.964844 77.433594 C 68.984375 77.433594 70.53125 77.398438 72.058594 77.265625 C 72.59375 77.21875 72.886719 77.0625 72.949219 76.792969 C 73.125 76.074219 71.335938 74.855469 70.871094 74.566406 C 71.679688 73.859375 84.082031 72.507812 93.371094 72.554688 L 93.773438 72.554688 C 103.042969 72.554688 115.167969 73.882812 115.878906 74.5625 C 115.421875 74.855469 113.617188 76.070312 113.789062 76.792969 C 113.855469 77.0625 114.144531 77.21875 114.679688 77.265625 C 116.207031 77.398438 117.757812 77.433594 117.777344 77.433594 C 119.859375 77.433594 122.839844 78.316406 125.464844 79.09375 C 125.460938 79.09375 125.480469 79.097656 125.472656 79.097656 C 125.832031 79.199219 126.1875 79.300781 126.53125 79.402344 C 126.863281 79.496094 127.183594 79.589844 127.5 79.679688 C 127.894531 79.792969 128.277344 79.898438 128.644531 79.996094 L 129.699219 80.257812 L 128.578125 70.847656 L 133.179688 65.957031 L 133.894531 65.128906 M 133.894531 65.128906 L 133.179688 65.957031 L 128.578125 70.847656 L 129.699219 80.257812 L 128.644531 79.996094 C 128.277344 79.898438 127.894531 79.792969 127.5 79.679688 C 127.183594 79.589844 126.863281 79.496094 126.53125 79.402344 C 126.1875 79.300781 125.832031 79.199219 125.472656 79.097656 C 125.480469 79.097656 125.460938 79.09375 125.464844 79.09375 C 122.839844 78.316406 119.859375 77.433594 117.777344 77.433594 C 117.757812 77.433594 116.207031 77.398438 114.679688 77.265625 C 114.144531 77.21875 113.855469 77.0625 113.789062 76.792969 C 113.617188 76.070312 115.421875 74.855469 115.878906 74.5625 C 115.167969 73.882812 103.042969 72.554688 93.773438 72.554688 L 93.371094 72.554688 C 84.082031 72.507812 71.679688 73.859375 70.871094 74.566406 C 71.335938 74.855469 73.125 76.074219 72.949219 76.792969 C 72.886719 77.0625 72.59375 77.21875 72.058594 77.265625 C 70.53125 77.398438 68.984375 77.433594 68.964844 77.433594 C 66.878906 77.433594 63.902344 78.316406 61.273438 79.09375 C 61.269531 79.097656 61.269531 79.097656 61.265625 79.097656 L 61.214844 79.113281 C 60.097656 79.445312 59.046875 79.761719 58.09375 79.996094 L 57.042969 80.257812 L 57.164062 79.128906 L 58.160156 70.847656 L 53.5625 65.960938 L 52.832031 65.125 L 54.035156 64.746094 C 54.078125 64.738281 54.226562 64.699219 54.464844 64.636719 C 56.1875 64.1875 62.464844 62.550781 64.730469 62.488281 L 63.949219 58.933594 C 63.90625 58.699219 63.980469 58.460938 64.140625 58.289062 C 65.261719 56.941406 77.136719 53.878906 93.371094 53.878906 C 109.808594 53.878906 121.269531 57.1875 122.367188 58.683594 C 122.535156 58.867188 122.613281 59.121094 122.578125 59.371094 L 121.992188 62.488281 C 124.578125 62.546875 132.363281 64.660156 132.6875 64.75 Z M 133.894531 65.128906 " fill-opacity="1" fill-rule="nonzero"/></g><path fill="#077954" d="M 117.699219 73.78125 L 117.453125 73.589844 C 116.484375 72.652344 104.117188 71.152344 93.613281 71.296875 C 83.09375 71.148438 69.960938 72.878906 69.265625 73.882812 L 69.152344 74.003906 L 69.070312 73.679688 C 69.042969 73.542969 66.1875 60.304688 66.027344 59.605469 C 66.042969 59.484375 66.09375 59.371094 66.179688 59.28125 C 67.203125 57.960938 79.203125 55.382812 93.613281 55.382812 C 99.882812 55.414062 106.136719 55.992188 112.304688 57.109375 C 116.847656 57.933594 120.101562 58.804688 120.660156 59.523438 C 120.71875 59.652344 120.734375 59.792969 120.695312 59.929688 C 120.535156 60.621094 118.007812 72.339844 117.980469 72.472656 Z M 117.699219 73.78125 " fill-opacity="1" fill-rule="nonzero"/><path fill="#000000" d="M 117.699219 73.78125 L 117.453125 73.589844 C 116.484375 72.652344 104.117188 71.152344 93.613281 71.296875 C 83.09375 71.148438 69.960938 72.878906 69.265625 73.882812 L 69.152344 74.003906 L 69.070312 73.679688 C 69.042969 73.542969 66.1875 60.304688 66.027344 59.605469 C 66.042969 59.484375 66.09375 59.371094 66.179688 59.28125 C 67.203125 57.960938 79.203125 55.382812 93.613281 55.382812 C 99.882812 55.414062 106.136719 55.992188 112.304688 57.109375 C 116.847656 57.933594 120.101562 58.804688 120.660156 59.523438 C 120.71875 59.652344 120.734375 59.792969 120.695312 59.929688 C 120.535156 60.621094 118.007812 72.339844 117.980469 72.472656 L 117.699219 73.78125 M 117.699219 73.78125 L 117.980469 72.472656 C 118.007812 72.339844 120.535156 60.621094 120.695312 59.929688 C 120.734375 59.792969 120.71875 59.652344 120.660156 59.523438 C 120.101562 58.804688 116.847656 57.933594 112.304688 57.109375 C 106.136719 55.992188 99.882812 55.414062 93.613281 55.382812 C 79.203125 55.382812 67.203125 57.960938 66.179688 59.28125 C 66.09375 59.371094 66.042969 59.484375 66.027344 59.605469 C 66.1875 60.304688 69.042969 73.542969 69.070312 73.679688 L 69.152344 74.003906 L 69.265625 73.882812 C 69.960938 72.878906 83.09375 71.148438 93.613281 71.296875 C 104.117188 71.152344 116.484375 72.652344 117.453125 73.589844 Z M 117.699219 73.78125 " fill-opacity="1" fill-rule="nonzero"/><path fill="#077954" d="M 67.695312 75.363281 L 65.035156 63.808594 L 64.976562 63.808594 C 62.933594 63.808594 55.40625 65.828125 55.40625 65.828125 L 59.6875 70.347656 L 58.769531 78.332031 C 58.769531 78.332031 61.351562 77.660156 62.542969 77.335938 C 63.898438 76.957031 65.175781 76.601562 66.273438 76.367188 C 66.960938 76.222656 67.65625 76.128906 68.351562 76.09375 L 68.90625 76.054688 L 68.65625 75.914062 Z M 67.695312 75.363281 " fill-opacity="1" fill-rule="nonzero"/><path fill="#000000" d="M 67.695312 75.363281 L 65.035156 63.808594 L 64.976562 63.808594 C 62.933594 63.808594 55.40625 65.828125 55.40625 65.828125 L 59.6875 70.347656 L 58.769531 78.332031 C 58.769531 78.332031 61.351562 77.660156 62.542969 77.335938 C 63.898438 76.957031 65.175781 76.601562 66.273438 76.367188 C 66.960938 76.222656 67.65625 76.128906 68.351562 76.09375 L 68.90625 76.054688 L 68.65625 75.914062 L 67.695312 75.363281 M 67.695312 75.363281 L 68.65625 75.914062 L 68.90625 76.054688 L 68.351562 76.09375 C 67.65625 76.128906 66.960938 76.222656 66.273438 76.367188 C 65.175781 76.601562 63.898438 76.957031 62.542969 77.335938 C 61.351562 77.660156 58.769531 78.332031 58.769531 78.332031 L 59.6875 70.347656 L 55.40625 65.828125 C 55.40625 65.828125 62.933594 63.808594 64.976562 63.808594 L 65.035156 63.808594 Z M 67.695312 75.363281 " fill-opacity="1" fill-rule="nonzero"/><path fill="#077954" d="M 119.003906 75.582031 L 121.664062 64.027344 L 121.722656 64.027344 C 123.769531 64.027344 131.292969 66.050781 131.292969 66.050781 L 127.011719 70.550781 L 127.933594 78.53125 C 127.933594 78.53125 125.351562 77.859375 124.160156 77.535156 C 122.804688 77.160156 121.527344 76.804688 120.425781 76.566406 C 119.742188 76.421875 119.046875 76.328125 118.34375 76.292969 L 117.796875 76.25 L 118.046875 76.109375 Z M 119.003906 75.582031 " fill-opacity="1" fill-rule="nonzero"/><path fill="#000000" d="M 119.003906 75.582031 L 121.664062 64.027344 L 121.722656 64.027344 C 123.769531 64.027344 131.292969 66.050781 131.292969 66.050781 L 127.011719 70.550781 L 127.933594 78.53125 C 127.933594 78.53125 125.351562 77.859375 124.160156 77.535156 L 124.132812 77.527344 C 122.789062 77.15625 121.519531 76.804688 120.425781 76.566406 C 119.742188 76.421875 119.042969 76.328125 118.34375 76.292969 L 117.796875 76.25 L 118.046875 76.109375 L 119.003906 75.582031 M 119.003906 75.582031 L 118.046875 76.109375 L 117.796875 76.25 L 118.34375 76.292969 C 119.042969 76.328125 119.742188 76.421875 120.425781 76.566406 C 121.519531 76.804688 122.789062 77.15625 124.132812 77.527344 L 124.160156 77.535156 C 125.351562 77.859375 127.933594 78.53125 127.933594 78.53125 L 127.011719 70.550781 L 131.292969 66.050781 C 131.292969 66.050781 123.769531 64.027344 121.722656 64.027344 L 121.664062 64.027344 Z M 119.003906 75.582031 " fill-opacity="1" fill-rule="nonzero"/><path fill="#df2a27" d="M 15.230469 113.753906 L 14.773438 113.808594 C 14.792969 116.953125 14.8125 120.097656 14.835938 123.246094 L 8.316406 123.277344 L 8.316406 98.3125 C 10.578125 97.464844 12.851562 96.65625 15.132812 95.878906 C 20.550781 93.984375 23.929688 95.902344 24.019531 102.871094 C 24.113281 109.773438 20.746094 113.164062 15.230469 113.753906 Z M 15.574219 101.84375 L 14.691406 102.074219 C 14.703125 104.25 14.71875 106.417969 14.734375 108.589844 L 15.621094 108.421875 C 17.234375 108.121094 17.929688 106.351562 17.910156 104.386719 C 17.890625 102.421875 17.1875 101.410156 15.574219 101.84375 Z M 15.574219 101.84375 " fill-opacity="1" fill-rule="nonzero"/><path fill="#000000" d="M 15.230469 113.753906 L 14.773438 113.808594 C 14.792969 116.953125 14.8125 120.097656 14.835938 123.246094 L 8.316406 123.277344 L 8.316406 98.3125 C 10.578125 97.464844 12.851562 96.65625 15.132812 95.878906 C 19.242188 94.441406 22.175781 95.195312 23.394531 98.683594 C 23.785156 99.796875 24 101.1875 24.019531 102.871094 C 24.113281 109.773438 20.746094 113.164062 15.230469 113.753906 M 15.230469 113.753906 C 20.746094 113.164062 24.113281 109.773438 24.019531 102.871094 C 24 101.1875 23.785156 99.796875 23.394531 98.683594 C 22.175781 95.195312 19.242188 94.441406 15.132812 95.878906 C 12.851562 96.65625 10.578125 97.464844 8.316406 98.3125 L 8.316406 123.277344 L 14.835938 123.246094 C 14.8125 120.097656 14.792969 116.953125 14.773438 113.808594 Z M 15.574219 101.84375 L 14.691406 102.074219 C 14.703125 104.25 14.71875 106.417969 14.734375 108.589844 L 15.621094 108.421875 C 17.234375 108.121094 17.929688 106.351562 17.910156 104.386719 C 17.894531 102.714844 17.382812 101.734375 16.234375 101.746094 C 16.035156 101.746094 15.816406 101.777344 15.574219 101.84375 M 15.574219 101.84375 C 15.816406 101.777344 16.035156 101.746094 16.234375 101.746094 C 17.382812 101.734375 17.894531 102.714844 17.910156 104.386719 C 17.929688 106.351562 17.234375 108.121094 15.621094 108.421875 L 14.734375 108.589844 C 14.71875 106.417969 14.703125 104.25 14.691406 102.074219 Z M 15.574219 101.84375 " fill-opacity="1" fill-rule="nonzero"/><path fill="#df2a27" d="M 49.269531 110.550781 L 48.679688 110.59375 L 48.679688 123.144531 L 41.980469 123.144531 L 41.929688 88.242188 C 41.929688 88.242188 46.613281 87.273438 48.964844 86.84375 C 54.546875 85.796875 58.816406 88.8125 58.917969 97.503906 C 59.015625 106.09375 54.789062 109.976562 49.269531 110.550781 Z M 49.476562 94.441406 C 49.179688 94.484375 48.691406 94.578125 48.691406 94.578125 C 48.691406 94.578125 48.664062 100.394531 48.691406 103.273438 C 51.691406 103.019531 52.359375 101.65625 52.359375 98.160156 C 52.371094 95.414062 51.121094 94.203125 49.476562 94.441406 Z M 49.476562 94.441406 " fill-opacity="1" fill-rule="nonzero"/><path fill="#000000" d="M 49.269531 110.550781 L 48.679688 110.59375 L 48.679688 123.144531 L 41.980469 123.144531 L 41.929688 88.242188 C 41.929688 88.242188 46.613281 87.273438 48.964844 86.84375 C 53.691406 85.957031 57.476562 87.984375 58.589844 93.902344 C 58.789062 94.972656 58.902344 96.171875 58.917969 97.503906 C 59.015625 106.09375 54.789062 109.976562 49.269531 110.550781 M 49.269531 110.550781 C 54.789062 109.976562 59.015625 106.09375 58.917969 97.503906 C 58.902344 96.171875 58.789062 94.972656 58.589844 93.902344 C 57.476562 87.984375 53.691406 85.957031 48.964844 86.84375 C 46.613281 87.273438 41.929688 88.242188 41.929688 88.242188 L 41.980469 123.144531 L 48.679688 123.144531 L 48.679688 110.59375 Z M 49.476562 94.441406 C 49.179688 94.484375 48.691406 94.578125 48.691406 94.578125 C 48.691406 94.578125 48.679688 97.164062 48.679688 99.738281 C 48.679688 101.027344 48.683594 102.3125 48.691406 103.273438 C 51.691406 103.019531 52.359375 101.65625 52.359375 98.160156 C 52.371094 95.644531 51.320312 94.417969 49.882812 94.410156 C 49.75 94.410156 49.613281 94.421875 49.476562 94.441406 M 49.476562 94.441406 C 49.613281 94.421875 49.75 94.410156 49.882812 94.410156 C 51.320312 94.417969 52.371094 95.644531 52.359375 98.160156 C 52.359375 101.65625 51.691406 103.019531 48.691406 103.273438 C 48.683594 102.3125 48.679688 101.027344 48.679688 99.738281 C 48.679688 97.164062 48.691406 94.578125 48.691406 94.578125 C 48.691406 94.578125 49.179688 94.484375 49.476562 94.441406 Z M 49.476562 94.441406 " fill-opacity="1" fill-rule="nonzero"/><path fill="#df2a27" d="M 163.621094 99.03125 C 162.738281 98.871094 161.851562 98.710938 160.964844 98.550781 C 161.179688 96.398438 161.460938 94.171875 161.675781 92.054688 C 162.835938 92.375 164.011719 92.765625 165.164062 93.109375 C 164.683594 95.027344 164.109375 97.019531 163.621094 99.03125 Z M 163.621094 99.03125 " fill-opacity="1" fill-rule="nonzero"/><path fill="#000000" d="M 163.621094 99.03125 C 162.738281 98.871094 161.851562 98.710938 160.964844 98.550781 C 161.074219 97.453125 161.199219 96.339844 161.328125 95.226562 C 161.449219 94.160156 161.570312 93.089844 161.675781 92.054688 C 162.402344 92.257812 163.136719 92.484375 163.867188 92.710938 C 164.300781 92.847656 164.734375 92.980469 165.164062 93.109375 C 164.949219 93.957031 164.71875 94.824219 164.484375 95.695312 C 164.246094 96.589844 164.003906 97.496094 163.777344 98.40625 C 163.726562 98.613281 163.671875 98.824219 163.621094 99.03125 M 163.621094 99.03125 C 163.671875 98.824219 163.726562 98.613281 163.777344 98.40625 C 164.003906 97.496094 164.246094 96.589844 164.484375 95.695312 C 164.71875 94.824219 164.949219 93.957031 165.164062 93.109375 C 164.734375 92.980469 164.300781 92.847656 163.867188 92.710938 C 163.136719 92.484375 162.402344 92.257812 161.675781 92.054688 C 161.570312 93.089844 161.449219 94.160156 161.328125 95.226562 C 161.199219 96.339844 161.074219 97.453125 160.964844 98.550781 C 161.851562 98.710938 162.738281 98.871094 163.621094 99.03125 Z M 163.621094 99.03125 " fill-opacity="1" fill-rule="nonzero"/><path fill="#df2a27" d="M 159.867188 120.027344 C 159.867188 118.703125 159.867188 117.394531 159.867188 116.105469 L 159.867188 91.5625 L 159.695312 91.519531 C 157.71875 91.003906 156.464844 90.675781 154.398438 90.148438 L 154.332031 90.128906 C 154.332031 90.5625 154.332031 90.984375 154.332031 91.402344 L 154.332031 106.765625 C 152.667969 100.503906 150.820312 95.394531 148.917969 88.945312 C 148.8125 88.945312 148.703125 88.917969 148.59375 88.902344 L 142.65625 87.628906 L 142.65625 108.316406 C 142.582031 113.125 142.507812 117.984375 142.433594 123.117188 L 148.796875 123.117188 L 148.796875 105.59375 C 150.410156 111.609375 152.523438 117.46875 154.078125 123.136719 L 159.867188 123.136719 Z M 159.867188 120.027344 " fill-opacity="1" fill-rule="nonzero"/><path fill="#000000" d="M 159.867188 120.027344 L 159.867188 91.5625 L 159.695312 91.519531 L 158.6875 91.257812 L 157.839844 91.035156 C 156.753906 90.753906 155.753906 90.492188 154.398438 90.148438 L 154.332031 90.128906 L 154.332031 106.765625 C 153.335938 103.035156 152.28125 99.710938 151.1875 96.265625 C 150.445312 93.933594 149.6875 91.550781 148.917969 88.945312 C 148.839844 88.945312 148.757812 88.929688 148.675781 88.914062 C 148.648438 88.910156 148.621094 88.90625 148.59375 88.902344 L 142.65625 87.628906 L 142.65625 108.460938 L 142.636719 109.628906 L 142.621094 110.804688 C 142.558594 114.800781 142.496094 118.875 142.433594 123.117188 L 148.796875 123.117188 L 148.796875 105.59375 C 149.644531 108.75 150.628906 111.867188 151.597656 114.933594 C 152.476562 117.707031 153.339844 120.445312 154.078125 123.136719 L 159.867188 123.136719 L 159.867188 120.027344 M 159.867188 120.027344 L 159.867188 123.136719 L 154.078125 123.136719 C 153.339844 120.445312 152.476562 117.707031 151.597656 114.933594 C 150.628906 111.867188 149.644531 108.75 148.796875 105.59375 L 148.796875 123.117188 L 142.433594 123.117188 C 142.496094 118.875 142.558594 114.800781 142.621094 110.804688 L 142.636719 109.628906 L 142.65625 108.460938 L 142.65625 87.628906 L 148.59375 88.902344 C 148.621094 88.90625 148.648438 88.910156 148.675781 88.914062 C 148.757812 88.929688 148.839844 88.945312 148.917969 88.945312 C 149.6875 91.550781 150.445312 93.933594 151.1875 96.265625 C 152.28125 99.710938 153.335938 103.035156 154.332031 106.765625 L 154.332031 90.128906 L 154.398438 90.148438 C 155.753906 90.492188 156.753906 90.753906 157.839844 91.035156 L 158.6875 91.257812 L 159.695312 91.519531 L 159.867188 91.5625 Z M 159.867188 120.027344 " fill-opacity="1" fill-rule="nonzero"/><path fill="#df2a27" d="M 140.4375 87.253906 L 140.289062 87.234375 C 138.027344 86.839844 133.6875 86.183594 133.6875 86.183594 L 133.6875 99.992188 L 128.753906 99.992188 L 128.753906 86.847656 C 128.753906 86.40625 128.753906 85.984375 128.753906 85.589844 L 127.910156 85.480469 L 122.597656 84.75 L 121.765625 84.632812 L 121.765625 85.03125 C 121.699219 91.730469 121.730469 97.949219 121.765625 104 L 121.765625 123.085938 L 128.746094 123.085938 L 128.746094 108.90625 L 133.691406 108.90625 L 133.691406 123.085938 L 140.433594 123.085938 Z M 140.4375 87.253906 " fill-opacity="1" fill-rule="nonzero"/><path fill="#000000" d="M 140.4375 87.253906 L 140.289062 87.234375 C 138.027344 86.839844 133.6875 86.183594 133.6875 86.183594 L 133.6875 99.992188 L 128.753906 99.992188 L 128.753906 85.589844 L 127.910156 85.480469 L 122.597656 84.75 L 121.765625 84.632812 L 121.765625 85.03125 C 121.699219 91.734375 121.730469 97.945312 121.765625 104 L 121.765625 123.085938 L 128.746094 123.085938 L 128.746094 108.90625 L 133.691406 108.90625 L 133.691406 123.085938 L 140.433594 123.085938 L 140.4375 87.253906 M 140.4375 87.253906 L 140.433594 123.085938 L 133.691406 123.085938 L 133.691406 108.90625 L 128.746094 108.90625 L 128.746094 123.085938 L 121.765625 123.085938 L 121.765625 104 C 121.730469 97.945312 121.699219 91.734375 121.765625 85.03125 L 121.765625 84.632812 L 122.597656 84.75 L 127.910156 85.480469 L 128.753906 85.589844 L 128.753906 99.992188 L 133.6875 99.992188 L 133.6875 86.183594 C 133.6875 86.183594 138.027344 86.839844 140.289062 87.234375 Z M 140.4375 87.253906 " fill-opacity="1" fill-rule="nonzero"/><path fill="#df2a27" d="M 172.546875 105.433594 C 171.488281 104.304688 170.863281 103.355469 170.863281 102.566406 C 170.863281 101.695312 171.1875 100.929688 172.179688 100.984375 C 173.347656 101.050781 173.535156 102.511719 173.59375 103.476562 C 173.59375 103.691406 173.621094 103.914062 173.636719 104.121094 L 179.511719 104.121094 C 179.332031 98.957031 177.441406 95.777344 172.910156 94.867188 C 168.59375 94 164.453125 95.949219 164.382812 101.328125 C 164.34375 104.640625 165.808594 107.605469 168.257812 110.011719 C 169.367188 111.121094 170.480469 112.195312 171.59375 113.242188 C 172.660156 114.238281 173.207031 114.9375 173.1875 115.664062 C 173.1875 116.554688 172.707031 117.277344 171.71875 117.277344 C 170.53125 117.277344 170.003906 116.070312 169.953125 115.058594 C 169.933594 114.652344 169.917969 114.195312 169.914062 113.75 L 164.007812 113.75 C 164.007812 114.042969 164.007812 114.335938 164.007812 114.632812 C 163.933594 120.101562 167.003906 123.523438 171.484375 123.523438 C 176.722656 123.523438 179.632812 120.210938 179.625 115.769531 C 179.625 113.144531 178.113281 111.121094 175.8125 108.785156 C 174.71875 107.703125 173.632812 106.585938 172.546875 105.433594 Z M 172.546875 105.433594 " fill-opacity="1" fill-rule="nonzero"/><path fill="#000000" d="M 172.546875 105.433594 C 171.488281 104.304688 170.863281 103.355469 170.863281 102.566406 C 170.863281 101.722656 171.164062 100.980469 172.082031 100.980469 C 172.113281 100.980469 172.148438 100.980469 172.179688 100.984375 C 173.347656 101.050781 173.539062 102.511719 173.59375 103.476562 C 173.59375 103.625 173.605469 103.773438 173.617188 103.917969 C 173.625 103.988281 173.632812 104.054688 173.636719 104.121094 L 179.511719 104.121094 C 179.332031 98.957031 177.441406 95.777344 172.910156 94.867188 C 169.074219 94.097656 165.375 95.550781 164.554688 99.65625 C 164.449219 100.171875 164.390625 100.726562 164.382812 101.328125 C 164.34375 104.640625 165.808594 107.605469 168.257812 110.011719 C 169.367188 111.117188 170.480469 112.195312 171.59375 113.242188 C 172.660156 114.238281 173.207031 114.9375 173.1875 115.664062 C 173.1875 116.554688 172.710938 117.277344 171.71875 117.277344 C 170.53125 117.277344 170.003906 116.070312 169.953125 115.058594 C 169.933594 114.652344 169.917969 114.195312 169.914062 113.75 L 164.007812 113.75 L 164.007812 114.632812 C 163.9375 120.054688 166.949219 123.464844 171.371094 123.519531 C 171.410156 123.523438 171.449219 123.523438 171.484375 123.523438 C 176.714844 123.523438 179.625 120.222656 179.625 115.792969 C 179.625 115.785156 179.625 115.78125 179.625 115.769531 C 179.625 113.144531 178.113281 111.121094 175.8125 108.785156 C 174.722656 107.703125 173.632812 106.585938 172.546875 105.433594 M 172.546875 105.433594 C 173.632812 106.585938 174.722656 107.703125 175.8125 108.785156 C 178.113281 111.121094 179.625 113.144531 179.625 115.769531 C 179.625 115.78125 179.625 115.785156 179.625 115.792969 C 179.625 120.222656 176.714844 123.523438 171.484375 123.523438 C 171.449219 123.523438 171.410156 123.523438 171.371094 123.519531 C 166.949219 123.464844 163.9375 120.054688 164.007812 114.632812 L 164.007812 113.75 L 169.914062 113.75 C 169.917969 114.195312 169.933594 114.652344 169.953125 115.058594 C 170.003906 116.070312 170.53125 117.277344 171.71875 117.277344 C 172.710938 117.277344 173.1875 116.554688 173.1875 115.664062 C 173.207031 114.9375 172.660156 114.238281 171.59375 113.242188 C 170.480469 112.195312 169.367188 111.117188 168.257812 110.011719 C 165.808594 107.605469 164.34375 104.640625 164.382812 101.328125 C 164.390625 100.726562 164.449219 100.171875 164.554688 99.65625 C 165.375 95.550781 169.074219 94.097656 172.910156 94.867188 C 177.441406 95.777344 179.332031 98.957031 179.511719 104.121094 L 173.636719 104.121094 C 173.632812 104.054688 173.625 103.988281 173.617188 103.917969 C 173.605469 103.773438 173.59375 103.625 173.59375 103.476562 C 173.539062 102.511719 173.347656 101.050781 172.179688 100.984375 C 172.148438 100.980469 172.113281 100.980469 172.082031 100.980469 C 171.164062 100.980469 170.863281 101.722656 170.863281 102.566406 C 170.863281 103.355469 171.488281 104.304688 172.546875 105.433594 Z M 172.546875 105.433594 " fill-opacity="1" fill-rule="nonzero"/><path fill="#df2a27" d="M 34.8125 89.8125 C 32.484375 90.378906 30.164062 90.980469 27.851562 91.617188 C 26.160156 102.652344 24.449219 113.207031 22.710938 123.214844 L 29.234375 123.195312 C 29.355469 121.929688 29.613281 119.378906 29.613281 119.378906 L 33.460938 119.378906 C 33.460938 119.378906 33.785156 121.867188 33.9375 123.179688 L 40.671875 123.179688 C 38.71875 111.640625 36.765625 100.519531 34.8125 89.8125 Z M 30.183594 113.476562 C 30.183594 113.476562 30.945312 105.726562 31.300781 101.851562 L 31.371094 101.847656 C 31.820312 105.585938 32.824219 113.476562 32.824219 113.476562 Z M 30.183594 113.476562 " fill-opacity="1" fill-rule="nonzero"/><path fill="#000000" d="M 34.8125 89.8125 C 32.484375 90.378906 30.164062 90.980469 27.851562 91.617188 C 26.160156 102.652344 24.449219 113.207031 22.710938 123.214844 L 29.234375 123.195312 C 29.355469 121.929688 29.609375 119.378906 29.613281 119.378906 L 33.460938 119.378906 C 33.460938 119.378906 33.460938 119.375 33.460938 119.378906 C 33.472656 119.46875 33.785156 121.890625 33.9375 123.179688 L 40.671875 123.179688 C 38.71875 111.640625 36.765625 100.519531 34.8125 89.8125 M 34.8125 89.8125 C 36.765625 100.519531 38.71875 111.640625 40.671875 123.179688 L 33.9375 123.179688 C 33.785156 121.890625 33.472656 119.46875 33.460938 119.378906 C 33.460938 119.375 33.460938 119.378906 33.460938 119.378906 L 29.613281 119.378906 C 29.609375 119.378906 29.355469 121.929688 29.234375 123.195312 L 22.710938 123.214844 C 24.449219 113.207031 26.160156 102.652344 27.851562 91.617188 C 30.164062 90.980469 32.484375 90.378906 34.8125 89.8125 Z M 30.183594 113.476562 C 30.183594 113.476562 30.945312 105.726562 31.300781 101.851562 L 31.371094 101.847656 C 31.820312 105.585938 32.824219 113.472656 32.824219 113.476562 L 30.183594 113.476562 M 30.183594 113.476562 L 32.824219 113.476562 C 32.824219 113.472656 31.820312 105.585938 31.371094 101.847656 L 31.300781 101.851562 C 30.945312 105.726562 30.183594 113.476562 30.183594 113.476562 Z M 30.183594 113.476562 " fill-opacity="1" fill-rule="nonzero"/><path fill="#df2a27" d="M 71.835938 84.148438 C 69.382812 84.417969 65.238281 84.828125 62.738281 85.09375 C 60.910156 98.136719 59.113281 110.5625 57.320312 123.125 L 64.621094 123.125 L 65.015625 118.527344 L 69.839844 118.527344 C 69.839844 118.527344 70.160156 121.578125 70.332031 123.128906 L 77.753906 123.128906 C 75.800781 109.894531 73.863281 97.046875 71.835938 84.148438 Z M 65.765625 111.507812 L 67.339844 97.476562 L 67.464844 97.476562 L 69.34375 111.492188 Z M 65.765625 111.507812 " fill-opacity="1" fill-rule="nonzero"/><path fill="#000000" d="M 71.835938 84.148438 C 70.4375 84.300781 68.496094 84.5 66.617188 84.691406 C 65.199219 84.835938 63.8125 84.976562 62.738281 85.09375 C 61.519531 93.792969 60.3125 102.207031 59.113281 110.585938 C 58.515625 114.769531 57.917969 118.9375 57.320312 123.125 L 64.621094 123.125 L 65.015625 118.527344 L 69.839844 118.527344 C 69.839844 118.527344 70.160156 121.578125 70.332031 123.128906 L 77.753906 123.128906 C 75.800781 109.894531 73.863281 97.046875 71.835938 84.148438 M 71.835938 84.148438 C 73.863281 97.046875 75.800781 109.894531 77.753906 123.128906 L 70.332031 123.128906 C 70.160156 121.578125 69.839844 118.527344 69.839844 118.527344 L 65.015625 118.527344 L 64.621094 123.125 L 57.320312 123.125 C 57.917969 118.9375 58.515625 114.769531 59.113281 110.585938 C 60.3125 102.207031 61.519531 93.792969 62.738281 85.09375 C 63.8125 84.976562 65.199219 84.835938 66.617188 84.691406 C 68.496094 84.5 70.4375 84.300781 71.835938 84.148438 Z M 65.765625 111.507812 L 67.339844 97.476562 L 67.464844 97.476562 L 69.34375 111.492188 L 65.765625 111.507812 M 65.765625 111.507812 L 69.34375 111.492188 L 67.464844 97.476562 L 67.339844 97.476562 Z M 65.765625 111.507812 " fill-opacity="1" fill-rule="nonzero"/><path fill="#df2a27" d="M 110.179688 83.398438 C 104.894531 83.214844 100.757812 87.445312 100.738281 94.785156 C 100.71875 100.457031 100.699219 106.125 100.683594 111.792969 C 100.660156 119.074219 105.03125 123.5625 110.222656 123.554688 C 115.410156 123.542969 119.367188 118.859375 119.441406 111.773438 C 119.5 106.242188 119.515625 101.007812 119.574219 95.476562 C 119.648438 88.332031 116.183594 83.605469 110.179688 83.398438 Z M 111.894531 113.976562 C 111.894531 114.871094 111.171875 115.59375 110.28125 115.59375 L 109.992188 115.59375 C 109.101562 115.59375 108.378906 114.871094 108.378906 113.976562 L 108.378906 92.957031 C 108.378906 92.0625 109.101562 91.339844 109.992188 91.339844 L 110.28125 91.339844 C 111.171875 91.339844 111.894531 92.0625 111.894531 92.957031 Z M 111.894531 113.976562 " fill-opacity="1" fill-rule="nonzero"/><path fill="#000000" d="M 110.179688 83.398438 C 105.046875 83.21875 100.996094 87.207031 100.75 94.167969 C 100.742188 94.371094 100.738281 94.578125 100.738281 94.785156 L 100.683594 111.792969 C 100.660156 119.054688 105.007812 123.539062 110.175781 123.554688 C 110.191406 123.554688 110.207031 123.554688 110.222656 123.554688 C 115.410156 123.542969 119.367188 118.859375 119.441406 111.773438 C 119.472656 109.007812 119.488281 106.316406 119.507812 103.625 C 119.527344 100.929688 119.546875 98.246094 119.574219 95.476562 C 119.648438 88.332031 116.183594 83.605469 110.179688 83.398438 M 110.179688 83.398438 C 116.183594 83.605469 119.648438 88.332031 119.574219 95.476562 C 119.546875 98.246094 119.527344 100.929688 119.507812 103.625 C 119.488281 106.316406 119.472656 109.007812 119.441406 111.773438 C 119.367188 118.859375 115.410156 123.542969 110.222656 123.554688 C 110.207031 123.554688 110.191406 123.554688 110.175781 123.554688 C 105.007812 123.539062 100.660156 119.054688 100.683594 111.792969 L 100.738281 94.785156 C 100.738281 94.578125 100.742188 94.371094 100.75 94.167969 C 100.996094 87.207031 105.046875 83.21875 110.179688 83.398438 Z M 111.894531 113.976562 C 111.894531 114.871094 111.171875 115.59375 110.28125 115.59375 L 109.992188 115.59375 C 109.101562 115.59375 108.378906 114.871094 108.378906 113.976562 L 108.378906 92.957031 C 108.378906 92.0625 109.101562 91.339844 109.992188 91.339844 L 110.28125 91.339844 C 111.171875 91.339844 111.894531 92.0625 111.894531 92.957031 L 111.894531 113.976562 M 111.894531 113.976562 L 111.894531 92.957031 C 111.894531 92.0625 111.171875 91.339844 110.28125 91.339844 L 109.992188 91.339844 C 109.101562 91.339844 108.378906 92.0625 108.378906 92.957031 L 108.378906 113.976562 C 108.378906 114.871094 109.101562 115.59375 109.992188 115.59375 L 110.28125 115.59375 C 111.171875 115.59375 111.894531 114.871094 111.894531 113.976562 Z M 111.894531 113.976562 " fill-opacity="1" fill-rule="nonzero"/><path fill="#df2a27" d="M 91.566406 83.265625 L 91.566406 114.738281 C 91.566406 115.304688 91.15625 115.792969 90.597656 115.890625 C 90.570312 115.894531 90.539062 115.894531 90.511719 115.890625 L 90.320312 115.890625 C 89.675781 115.890625 89.152344 115.367188 89.152344 114.722656 L 89.152344 110.734375 C 87.15625 110.734375 84.6875 110.769531 82.695312 110.796875 C 82.695312 111.765625 82.695312 114.007812 82.695312 114.96875 C 82.695312 119.996094 85.765625 123.453125 90.355469 123.453125 C 90.746094 123.449219 91.140625 123.425781 91.527344 123.371094 C 96.550781 123.007812 98.628906 119.675781 98.628906 112.136719 L 98.675781 83.28125 Z M 91.566406 83.265625 " fill-opacity="1" fill-rule="nonzero"/><path fill="#000000" d="M 91.566406 83.265625 L 91.566406 114.738281 C 91.566406 115.304688 91.15625 115.792969 90.597656 115.890625 C 90.570312 115.894531 90.539062 115.894531 90.511719 115.890625 L 90.320312 115.890625 C 89.675781 115.890625 89.152344 115.367188 89.152344 114.722656 L 89.152344 110.734375 C 87.15625 110.734375 84.683594 110.769531 82.695312 110.796875 L 82.695312 114.96875 C 82.695312 119.996094 85.765625 123.453125 90.355469 123.453125 C 90.746094 123.449219 91.140625 123.425781 91.527344 123.371094 C 96.550781 123.007812 98.628906 119.675781 98.628906 112.136719 L 98.675781 83.28125 L 91.566406 83.265625 M 91.566406 83.265625 L 98.675781 83.28125 L 98.628906 112.136719 C 98.628906 119.675781 96.550781 123.007812 91.527344 123.371094 C 91.140625 123.425781 90.746094 123.449219 90.355469 123.453125 C 85.765625 123.453125 82.695312 119.996094 82.695312 114.96875 L 82.695312 110.796875 C 84.683594 110.769531 87.15625 110.734375 89.152344 110.734375 L 89.152344 114.722656 C 89.152344 115.367188 89.675781 115.890625 90.320312 115.890625 L 90.511719 115.890625 C 90.539062 115.894531 90.570312 115.894531 90.597656 115.890625 C 91.15625 115.792969 91.566406 115.304688 91.566406 114.738281 Z M 91.566406 83.265625 " fill-opacity="1" fill-rule="nonzero"/><path fill="#ffffff" d="M 76.675781 69.503906 L 75.453125 59.601562 L 78.382812 59.238281 C 80.359375 58.996094 81.894531 59.839844 82.125 61.722656 C 82.355469 63.597656 81.070312 64.90625 79.09375 65.152344 L 78.324219 65.246094 L 78.816406 69.234375 Z M 78.886719 63.433594 C 79.617188 63.371094 80.132812 62.691406 79.996094 61.96875 C 79.90625 61.226562 79.351562 60.882812 78.585938 60.972656 L 77.816406 61.066406 L 78.121094 63.527344 Z M 78.886719 63.433594 " fill-opacity="1" fill-rule="nonzero"/><path fill="#000000" d="M 76.675781 69.503906 L 75.453125 59.601562 L 78.382812 59.238281 C 80.359375 58.996094 81.894531 59.839844 82.125 61.722656 C 82.355469 63.597656 81.070312 64.90625 79.09375 65.152344 L 78.324219 65.246094 L 78.816406 69.234375 L 76.675781 69.503906 M 76.675781 69.503906 L 78.816406 69.234375 L 78.324219 65.246094 L 79.09375 65.152344 C 81.070312 64.90625 82.355469 63.597656 82.125 61.722656 C 81.894531 59.839844 80.359375 58.996094 78.382812 59.238281 L 75.453125 59.601562 Z M 78.886719 63.433594 C 79.574219 63.375 80.070312 62.769531 80.011719 62.101562 C 80.007812 62.058594 80.003906 62.011719 79.996094 61.96875 C 79.90625 61.226562 79.351562 60.882812 78.585938 60.972656 L 77.816406 61.066406 L 78.121094 63.527344 L 78.886719 63.433594 M 78.886719 63.433594 L 78.121094 63.527344 L 77.816406 61.066406 L 78.585938 60.972656 C 79.351562 60.882812 79.90625 61.226562 79.996094 61.96875 C 80.003906 62.011719 80.007812 62.058594 80.011719 62.101562 C 80.070312 62.769531 79.574219 63.375 78.886719 63.433594 Z M 78.886719 63.433594 " fill-opacity="1" fill-rule="nonzero"/><path fill="#ffffff" d="M 84.152344 68.582031 L 83.566406 58.621094 L 85.734375 58.5 L 86.316406 68.453125 Z M 84.152344 68.582031 " fill-opacity="1" fill-rule="nonzero"/><path fill="#000000" d="M 84.152344 68.582031 L 83.566406 58.621094 L 85.734375 58.5 L 86.316406 68.453125 L 84.152344 68.582031 M 84.152344 68.582031 L 86.316406 68.453125 L 85.734375 58.5 L 83.566406 58.621094 Z M 84.152344 68.582031 " fill-opacity="1" fill-rule="nonzero"/><path fill="#ffffff" d="M 88.523438 68.300781 L 88.507812 66.824219 L 92.09375 60.058594 L 88.542969 60.101562 L 88.523438 58.328125 L 94.582031 58.257812 L 94.601562 59.621094 L 90.96875 66.5 L 94.78125 66.453125 L 94.804688 68.230469 Z M 88.523438 68.300781 " fill-opacity="1" fill-rule="nonzero"/><path fill="#000000" d="M 88.523438 68.300781 L 88.507812 66.824219 L 92.09375 60.058594 L 88.542969 60.101562 L 88.523438 58.328125 L 94.582031 58.257812 L 94.601562 59.621094 L 90.96875 66.5 L 94.78125 66.453125 L 94.804688 68.230469 L 88.523438 68.300781 M 88.523438 68.300781 L 94.804688 68.230469 L 94.78125 66.453125 L 90.96875 66.5 L 94.601562 59.621094 L 94.582031 58.257812 L 88.523438 58.328125 L 88.542969 60.101562 L 92.09375 60.058594 L 88.507812 66.824219 Z M 88.523438 68.300781 " fill-opacity="1" fill-rule="nonzero"/><path fill="#ffffff" d="M 96.71875 68.207031 L 96.792969 66.726562 L 100.792969 60.199219 L 97.257812 60.015625 L 97.347656 58.242188 L 103.402344 58.546875 L 103.332031 59.910156 L 99.277344 66.550781 L 103.085938 66.742188 L 103 68.515625 Z M 96.71875 68.207031 " fill-opacity="1" fill-rule="nonzero"/><path fill="#000000" d="M 96.71875 68.207031 L 96.792969 66.726562 L 100.792969 60.199219 L 97.257812 60.015625 L 97.347656 58.242188 L 103.402344 58.546875 L 103.332031 59.910156 L 99.277344 66.550781 L 103.085938 66.742188 L 103 68.515625 L 96.71875 68.207031 M 96.71875 68.207031 L 103 68.515625 L 103.085938 66.742188 L 99.277344 66.550781 L 103.332031 59.910156 L 103.402344 58.546875 L 97.347656 58.242188 L 97.257812 60.015625 L 100.792969 60.199219 L 96.792969 66.726562 Z M 96.71875 68.207031 " fill-opacity="1" fill-rule="nonzero"/><path fill="#ffffff" d="M 109.304688 69.296875 L 109.234375 68.0625 L 107.230469 67.800781 L 106.851562 68.984375 L 104.699219 68.710938 L 108.371094 59.117188 L 110.535156 59.394531 L 111.550781 69.582031 Z M 109.011719 62.515625 L 108.976562 62.515625 L 107.75 66.253906 L 109.195312 66.4375 Z M 109.011719 62.515625 " fill-opacity="1" fill-rule="nonzero"/><path fill="#000000" d="M 109.304688 69.296875 L 109.234375 68.0625 L 107.230469 67.800781 L 106.851562 68.984375 L 104.699219 68.710938 L 108.371094 59.117188 L 110.535156 59.394531 L 111.550781 69.582031 L 109.304688 69.296875 M 109.304688 69.296875 L 111.550781 69.582031 L 110.535156 59.394531 L 108.371094 59.117188 L 104.699219 68.710938 L 106.851562 68.984375 L 107.230469 67.800781 L 109.234375 68.0625 Z M 109.011719 62.515625 L 108.976562 62.515625 L 107.753906 66.253906 L 109.195312 66.4375 L 109.011719 62.515625 M 109.011719 62.515625 L 109.195312 66.4375 L 107.753906 66.253906 L 108.976562 62.515625 Z M 109.011719 62.515625 " fill-opacity="1" fill-rule="nonzero"/></svg>