<svg xmlns="http://www.w3.org/2000/svg" xmlns:xlink="http://www.w3.org/1999/xlink" width="250" zoomAndPan="magnify" viewBox="0 0 187.5 187.499992" height="250" preserveAspectRatio="xMidYMid meet" version="1.0"><defs><clipPath id="70a7d0a357"><path d="M 0.835938 64.132812 L 54.023438 64.132812 L 54.023438 119.953125 L 0.835938 119.953125 Z M 0.835938 64.132812 " clip-rule="nonzero"/></clipPath><clipPath id="04caed036f"><path d="M 129.097656 74.800781 L 186.164062 74.800781 L 186.164062 122.929688 L 129.097656 122.929688 Z M 129.097656 74.800781 " clip-rule="nonzero"/></clipPath></defs><path fill="#ffffff" d="M 140.414062 108.03125 L 140.414062 76.777344 C 140.414062 76.699219 140.410156 76.625 140.402344 76.546875 C 140.394531 76.46875 140.378906 76.390625 140.359375 76.316406 C 140.339844 76.238281 140.316406 76.164062 140.289062 76.09375 C 140.261719 76.019531 140.230469 75.949219 140.191406 75.878906 C 140.15625 75.8125 140.113281 75.746094 140.070312 75.683594 C 140.023438 75.617188 139.976562 75.558594 139.921875 75.5 C 139.871094 75.441406 139.816406 75.386719 139.757812 75.335938 C 139.699219 75.285156 139.636719 75.238281 139.570312 75.195312 C 139.503906 75.152344 139.4375 75.113281 139.367188 75.078125 C 139.300781 75.042969 139.226562 75.011719 139.152344 74.984375 C 139.082031 74.957031 139.003906 74.9375 138.929688 74.921875 C 138.851562 74.902344 138.777344 74.890625 138.699219 74.882812 C 138.621094 74.875 138.542969 74.875 138.464844 74.875 C 138.386719 74.878906 138.308594 74.886719 138.230469 74.894531 C 138.15625 74.90625 138.078125 74.925781 138.003906 74.945312 C 137.929688 74.964844 137.855469 74.992188 137.78125 75.023438 C 136.195312 75.6875 134.207031 76.398438 132.359375 76.988281 C 132.191406 77.042969 132.03125 77.125 131.886719 77.230469 C 131.742188 77.335938 131.617188 77.457031 131.511719 77.601562 C 131.40625 77.746094 131.324219 77.90625 131.269531 78.074219 C 131.210938 78.246094 131.183594 78.417969 131.179688 78.597656 L 131.261719 113.113281 C 133.71875 110.699219 136.957031 109.003906 140.414062 108.03125 Z M 140.414062 108.03125 " fill-opacity="1" fill-rule="nonzero"/><path fill="#ffffff" d="M 93.394531 85.929688 L 91.46875 85.929688 C 91.386719 85.925781 91.304688 85.9375 91.226562 85.957031 C 91.144531 85.976562 91.070312 86.003906 90.996094 86.039062 C 90.921875 86.078125 90.855469 86.121094 90.792969 86.175781 C 90.730469 86.230469 90.675781 86.289062 90.625 86.355469 C 90.578125 86.421875 90.539062 86.496094 90.507812 86.570312 C 90.476562 86.648438 90.457031 86.726562 90.445312 86.808594 C 90.433594 86.886719 90.429688 86.96875 90.4375 87.050781 C 90.445312 87.132812 90.460938 87.210938 90.488281 87.289062 C 92.867188 94.398438 92.019531 111.804688 87.296875 111.234375 C 82.964844 110.714844 81.894531 92.570312 81.671875 87.324219 C 81.667969 87.230469 81.65625 87.136719 81.636719 87.046875 C 81.613281 86.957031 81.582031 86.867188 81.542969 86.78125 C 81.503906 86.699219 81.457031 86.617188 81.40625 86.539062 C 81.351562 86.464844 81.289062 86.394531 81.222656 86.328125 C 81.15625 86.265625 81.082031 86.207031 81.003906 86.15625 C 80.921875 86.105469 80.839844 86.066406 80.753906 86.03125 C 80.667969 85.996094 80.578125 85.96875 80.484375 85.953125 C 80.394531 85.933594 80.300781 85.925781 80.207031 85.929688 L 69.503906 85.929688 C 69.421875 85.925781 69.335938 85.9375 69.253906 85.957031 C 69.171875 85.976562 69.09375 86.003906 69.019531 86.042969 C 68.945312 86.082031 68.878906 86.128906 68.8125 86.1875 C 68.75 86.242188 68.695312 86.304688 68.648438 86.375 C 68.601562 86.441406 68.5625 86.519531 68.53125 86.597656 C 68.503906 86.675781 68.484375 86.757812 68.472656 86.839844 C 68.464844 86.925781 68.464844 87.007812 68.476562 87.089844 C 68.488281 87.175781 68.511719 87.257812 68.542969 87.332031 C 71.835938 95.5 69.632812 114.496094 65.632812 111.832031 C 61.996094 109.402344 59.984375 92.167969 59.484375 87.226562 C 59.464844 87.046875 59.414062 86.875 59.332031 86.714844 C 59.25 86.550781 59.140625 86.410156 59.003906 86.289062 C 58.867188 86.167969 58.714844 86.078125 58.546875 86.011719 C 58.375 85.945312 58.199219 85.914062 58.019531 85.914062 L 47.988281 85.914062 C 47.886719 85.917969 47.789062 85.933594 47.695312 85.964844 C 47.597656 86 47.511719 86.046875 47.433594 86.109375 C 47.351562 86.167969 47.285156 86.242188 47.230469 86.324219 C 47.171875 86.410156 47.132812 86.5 47.105469 86.597656 C 47.078125 86.691406 47.066406 86.792969 47.074219 86.890625 C 47.078125 86.992188 47.097656 87.089844 47.136719 87.183594 C 47.171875 87.277344 47.222656 87.363281 47.285156 87.4375 C 47.351562 87.515625 47.425781 87.582031 47.511719 87.632812 C 51.707031 90.265625 55.726562 94.148438 56.390625 100.109375 C 56.585938 101.847656 56.457031 103.5625 56.003906 105.253906 C 55.5625 106.804688 54.933594 108.273438 54.109375 109.65625 C 53.96875 109.902344 53.886719 110.167969 53.859375 110.449219 C 53.835938 110.730469 53.871094 111.003906 53.96875 111.269531 C 55.722656 116.152344 57.96875 119.726562 61.375 119.726562 C 72.503906 119.726562 72.921875 102.820312 72.921875 102.820312 C 72.921875 102.820312 73.011719 119.726562 84.054688 119.726562 C 95.613281 119.726562 95.148438 93.675781 94.863281 87.308594 C 94.855469 87.214844 94.84375 87.125 94.820312 87.03125 C 94.796875 86.941406 94.765625 86.855469 94.726562 86.773438 C 94.6875 86.6875 94.640625 86.609375 94.585938 86.53125 C 94.53125 86.457031 94.472656 86.386719 94.402344 86.324219 C 94.335938 86.261719 94.261719 86.203125 94.183594 86.15625 C 94.105469 86.105469 94.023438 86.0625 93.9375 86.027344 C 93.851562 85.996094 93.761719 85.96875 93.671875 85.953125 C 93.578125 85.9375 93.488281 85.925781 93.394531 85.929688 Z M 93.394531 85.929688 " fill-opacity="1" fill-rule="nonzero"/><path fill="#ffffff" d="M 127.496094 101.101562 C 127.066406 97.042969 124.832031 86.128906 112.738281 86.128906 C 97.894531 86.128906 94.648438 103.144531 98.96875 112.050781 C 102.792969 119.949219 117.4375 123.589844 126.371094 113.964844 C 127.613281 112.632812 128.570312 110.101562 124.679688 110.808594 C 118.222656 111.988281 105.542969 113.019531 104.261719 102.597656 L 126.121094 102.597656 C 126.214844 102.597656 126.3125 102.589844 126.40625 102.570312 C 126.5 102.550781 126.589844 102.523438 126.679688 102.484375 C 126.765625 102.445312 126.847656 102.398438 126.925781 102.34375 C 127.003906 102.289062 127.078125 102.226562 127.140625 102.15625 C 127.207031 102.085938 127.265625 102.007812 127.3125 101.925781 C 127.359375 101.84375 127.402344 101.757812 127.429688 101.667969 C 127.460938 101.578125 127.484375 101.484375 127.496094 101.386719 C 127.503906 101.292969 127.507812 101.199219 127.496094 101.101562 Z M 103.671875 99.101562 C 103.433594 95.800781 103.449219 94.648438 104.117188 92.539062 C 104.253906 92.085938 104.457031 91.65625 104.71875 91.261719 C 104.980469 90.863281 105.296875 90.511719 105.664062 90.207031 C 105.695312 90.179688 105.730469 90.160156 105.765625 90.144531 C 107.128906 89.160156 109.121094 89.277344 110.523438 90.207031 C 114.253906 92.667969 114.894531 99.117188 114.894531 99.117188 Z M 103.671875 99.101562 " fill-opacity="1" fill-rule="nonzero"/><g clip-path="url(#70a7d0a357)"><path fill="#ffffff" d="M 53.925781 100.394531 C 53.511719 96.621094 51.402344 93.75 48.648438 91.511719 C 46.578125 89.890625 44.339844 88.542969 41.941406 87.464844 C 35.664062 84.5 28.84375 83.054688 22.402344 80.5 C 20.613281 79.789062 18.542969 78.679688 17.652344 76.835938 C 15.46875 72.34375 21.101562 69.203125 24.890625 69.203125 L 25.15625 69.203125 C 27.988281 69.316406 30.636719 70.757812 32.722656 72.6875 C 37.335938 76.941406 35.765625 79.222656 37.246094 80.707031 C 37.425781 80.894531 37.652344 80.984375 37.910156 80.976562 C 39.121094 80.976562 40.855469 79 41.394531 78.347656 C 41.6875 78.003906 41.949219 77.636719 42.171875 77.246094 C 42.394531 76.851562 42.578125 76.441406 42.722656 76.011719 C 42.867188 75.585938 42.972656 75.144531 43.03125 74.699219 C 43.09375 74.25 43.109375 73.800781 43.082031 73.351562 C 42.882812 70.773438 41.3125 68.421875 39.21875 66.898438 C 37.125 65.371094 34.570312 64.609375 32 64.292969 C 31.074219 64.175781 30.140625 64.117188 29.203125 64.117188 C 27.820312 64.105469 26.453125 64.238281 25.101562 64.511719 C 23.75 64.78125 22.4375 65.1875 21.167969 65.730469 C 20.316406 66.09375 19.503906 66.519531 18.726562 67.019531 C 17.949219 67.515625 17.214844 68.074219 16.53125 68.695312 C 15.847656 69.3125 15.21875 69.988281 14.644531 70.710938 C 14.074219 71.433594 13.566406 72.203125 13.121094 73.011719 C 11.390625 76.273438 10.953125 80.316406 12.453125 83.679688 C 13.523438 86.109375 15.488281 88.046875 17.699219 89.515625 C 21.273438 91.886719 35.933594 96.734375 38.851562 98.242188 C 40.828125 99.265625 42.632812 100.722656 43.730469 102.660156 C 44.828125 104.597656 45.097656 107.0625 44.121094 109.058594 C 43.144531 111.054688 41.121094 112.308594 39.039062 113.058594 C 37.140625 113.753906 35.183594 114.101562 33.160156 114.101562 C 32.320312 114.09375 31.488281 114.03125 30.65625 113.910156 C 29.828125 113.785156 29.007812 113.605469 28.203125 113.367188 C 27.398438 113.128906 26.613281 112.835938 25.851562 112.488281 C 25.085938 112.136719 24.351562 111.738281 23.644531 111.285156 C 22.9375 110.835938 22.261719 110.335938 21.625 109.789062 C 20.988281 109.242188 20.394531 108.652344 19.835938 108.023438 C 19.285156 107.390625 18.777344 106.726562 18.316406 106.023438 C 17.855469 105.320312 17.445312 104.589844 17.085938 103.832031 C 16.0625 101.648438 15.488281 99.355469 15.355469 96.945312 C 15.257812 95.632812 15.253906 94.316406 15.335938 93.003906 C 15.351562 92.878906 15.351562 92.757812 15.339844 92.632812 C 15.328125 92.507812 15.304688 92.386719 15.265625 92.269531 C 15.230469 92.148438 15.179688 92.035156 15.121094 91.929688 C 15.058594 91.820312 14.988281 91.71875 14.90625 91.625 C 14.828125 91.53125 14.738281 91.445312 14.636719 91.371094 C 14.539062 91.296875 14.433594 91.230469 14.320312 91.179688 C 14.207031 91.125 14.09375 91.082031 13.972656 91.054688 C 13.851562 91.023438 13.726562 91.007812 13.605469 91.003906 C 13.535156 91.003906 13.46875 91.003906 13.402344 91.003906 C 8.734375 91.566406 3.695312 94.304688 1.714844 98.757812 C -0.5625 103.878906 2.140625 109.59375 6.230469 112.769531 C 7.742188 113.9375 9.347656 114.957031 11.042969 115.832031 C 12.742188 116.703125 14.503906 117.417969 16.332031 117.96875 C 20.285156 119.117188 24.324219 119.710938 28.441406 119.738281 C 34.207031 119.738281 39.894531 118.433594 45.105469 115.367188 C 46.738281 114.375 48.199219 113.175781 49.492188 111.765625 C 50.78125 110.359375 51.851562 108.796875 52.695312 107.085938 C 53.09375 106.273438 53.410156 105.433594 53.652344 104.566406 C 54.003906 103.191406 54.09375 101.804688 53.925781 100.394531 Z M 53.925781 100.394531 " fill-opacity="1" fill-rule="nonzero"/></g><g clip-path="url(#04caed036f)"><path fill="#ffffff" d="M 180.183594 114.179688 C 175.878906 115.824219 171.066406 115.980469 166.429688 115.117188 C 164.453125 114.746094 162.523438 114.21875 160.570312 113.742188 C 160.117188 113.632812 159.664062 113.503906 159.210938 113.375 L 159.210938 76.792969 C 159.210938 76.714844 159.207031 76.636719 159.199219 76.558594 C 159.191406 76.480469 159.179688 76.402344 159.160156 76.328125 C 159.144531 76.25 159.121094 76.175781 159.09375 76.101562 C 159.066406 76.03125 159.035156 75.957031 159 75.890625 C 158.964844 75.820312 158.921875 75.753906 158.878906 75.6875 C 158.835938 75.625 158.785156 75.5625 158.734375 75.503906 C 158.683594 75.445312 158.625 75.390625 158.566406 75.339844 C 158.507812 75.289062 158.445312 75.242188 158.382812 75.199219 C 158.316406 75.152344 158.246094 75.113281 158.179688 75.078125 C 158.109375 75.042969 158.035156 75.015625 157.964844 74.988281 C 157.890625 74.960938 157.8125 74.941406 157.738281 74.921875 C 157.660156 74.90625 157.585938 74.894531 157.507812 74.886719 C 157.429688 74.882812 157.351562 74.878906 157.273438 74.882812 C 157.195312 74.882812 157.117188 74.890625 157.039062 74.90625 C 156.960938 74.917969 156.886719 74.933594 156.8125 74.957031 C 156.734375 74.976562 156.664062 75.003906 156.589844 75.035156 C 155.019531 75.703125 153.039062 76.410156 151.195312 77 C 151.023438 77.058594 150.863281 77.136719 150.71875 77.242188 C 150.574219 77.347656 150.445312 77.46875 150.335938 77.613281 C 150.230469 77.757812 150.148438 77.917969 150.089844 78.085938 C 150.035156 78.257812 150.003906 78.433594 150 78.613281 L 150.082031 107.164062 L 150.082031 111.425781 C 148.007812 111.25 145.9375 111.296875 143.875 111.5625 C 138.074219 112.347656 132.378906 115.128906 129.210938 119.785156 C 135.175781 117.285156 142.125 116.867188 148.417969 118.214844 C 152.367188 119.058594 156.191406 120.40625 160.082031 121.4375 C 163.976562 122.46875 168.046875 123.183594 172.058594 122.722656 C 178.878906 121.941406 184.582031 117.3125 186.136719 110.566406 C 184.375 112.136719 182.390625 113.34375 180.183594 114.179688 Z M 180.183594 114.179688 " fill-opacity="1" fill-rule="nonzero"/></g></svg>